# File created by Blade
# Date/Time:  Mon Nov 18 17:26:10 2013
# Frame Rate: 100.000 fps
#------------------------------------------------------
:FULLY-SPECIFIED
:DEGREES
38
root -37.092032 -1.640642 40.307833 7.195022 -2.899163 26.026159
Spine 18.792061 -0.500113 0.161398
Spine1 6.732676 0.207105 1.273903
Spine2 -22.628250 2.071737 -0.239913
NeckDummy 0.066107 0.444174 0.974746 13.353311 -0.196692 -0.689822
Neck 2.860280 -7.747860 42.160411
Head 0.164618 -0.130280 -0.122031 0.239658 0.766060 0.552285
LeftShoulderDummy 0.021782 0.433977 0.982384 13.371722 -0.333988 -0.496398
LeftShoulder 3.034890 -3.497719 14.482058
LeftArm 12.968620 36.503955 30.156715
LeftForeArm 61.585455
LeftForeArmRoll 11.076958
LeftHand -33.024986 -21.867015 5.578925
LeftHandThumb1 14.969107 4.184165
LeftHandIndex1 -1.531810 45.701243
LeftHandPinky1 0.645191 66.673846
RightShoulderDummy 0.070207 0.462056 0.958469 13.344916 0.195689 0.733874
RightShoulder 12.429406 0.144856 11.646499
RightArm -14.448462 58.166331 21.931238
RightForeArm 98.426009
RightForeArmRoll 23.251587
RightHand -45.145036 -25.702808 9.101509
RightHandThumb1 11.474348 7.803552
RightHandIndex1 4.375520 45.514751
RightHandPinky1 12.309796 74.150645
LeftUpLeg -5.646944 9.337276 -27.910247
LeftLeg 49.511477
LeftFoot -0.075667 -0.834044 -1.740415 -12.787285 16.358674 -23.795603
LeftToeBase -2.561698
RightUpLeg -2.980863 14.150464 -43.602551
RightLeg 55.436127
RightFoot -0.022815 0.848468 0.537917 -5.985755 11.497848 -14.069506
RightToeBase -8.895798
39
root -37.233574 -1.626245 40.340574 7.189457 -2.812234 26.133146
Spine 18.655938 -0.546204 0.234627
Spine1 6.686435 0.170215 1.424030
Spine2 -22.690058 2.050400 -0.075524
NeckDummy 0.063813 0.448215 0.980258 13.365053 -0.342559 -0.410160
Neck 3.075658 -8.018510 41.819892
Head 0.179290 -0.128522 -0.132357 0.368649 0.914844 0.599448
LeftShoulderDummy 0.017768 0.443019 0.990589 13.384081 -0.486640 -0.206527
LeftShoulder 3.167775 -3.954687 14.491421
LeftArm 13.021267 36.343282 30.923331
LeftForeArm 61.848689
LeftForeArmRoll 10.881074
LeftHand -32.857497 -21.463495 5.137404
LeftHandThumb1 15.010954 4.171023
LeftHandIndex1 -1.503079 45.551891
LeftHandPinky1 0.508334 66.563138
RightShoulderDummy 0.067979 0.459811 0.961549 13.358622 0.341709 0.447372
RightShoulder 12.169888 0.671655 11.433498
RightArm -15.094352 58.684297 21.801880
RightForeArm 97.788392
RightForeArmRoll 22.751467
RightHand -45.231461 -25.814654 8.498723
RightHandThumb1 11.754141 8.186576
RightHandIndex1 4.248267 46.246252
RightHandPinky1 11.829644 74.587861
LeftUpLeg -5.703497 9.472781 -27.949657
LeftLeg 49.383479
LeftFoot -0.056781 -0.845941 -1.741171 -13.038690 16.237375 -23.626021
LeftToeBase -2.433409
RightUpLeg -3.430128 14.611525 -42.952595
RightLeg 56.021439
RightFoot 0.001379 0.840175 0.504576 -4.983898 12.435650 -14.027440
RightToeBase -8.863481
40
root -37.384414 -1.609519 40.391713 7.177989 -2.720116 26.261630
Spine 18.497274 -0.576321 0.324158
Spine1 6.632235 0.146391 1.603667
Spine2 -22.691578 1.975437 -0.023037
NeckDummy 0.061042 0.456376 0.981708 13.376937 -0.400636 -0.317666
Neck 3.074738 -8.139262 41.372657
Head 0.190810 -0.134726 -0.141359 0.483677 1.036139 0.645836
LeftShoulderDummy 0.014435 0.452788 0.992973 13.396058 -0.545124 -0.116465
LeftShoulder 3.184354 -4.160925 14.499986
LeftArm 12.947705 36.210797 31.589272
LeftForeArm 62.076198
LeftForeArmRoll 10.765895
LeftHand -32.823625 -21.118211 4.719179
LeftHandThumb1 14.847712 4.044357
LeftHandIndex1 -1.553415 45.308311
LeftHandPinky1 0.288799 66.276710
RightShoulderDummy 0.065588 0.465980 0.962262 13.370856 0.398196 0.356008
RightShoulder 11.952089 0.818417 11.274037
RightArm -15.759731 59.133714 21.557968
RightForeArm 97.143334
RightForeArmRoll 21.676955
RightHand -45.318222 -25.676907 7.885398
RightHandThumb1 11.922352 8.339750
RightHandIndex1 4.133942 46.321686
RightHandPinky1 11.684107 74.275022
LeftUpLeg -5.866407 9.587244 -27.907116
LeftLeg 49.160397
LeftFoot -0.046194 -0.847312 -1.738178 -13.161661 16.216826 -23.418383
LeftToeBase -2.337476
RightUpLeg -3.808222 15.054681 -42.155054
RightLeg 56.490546
RightFoot 0.023557 0.834140 0.470293 -3.789492 13.546457 -14.099632
RightToeBase -8.768734
41
root -37.532085 -1.595505 40.452010 7.118695 -2.611328 26.456673
Spine 18.363084 -0.562029 0.385921
Spine1 6.601556 0.139351 1.713536
Spine2 -22.732889 1.918759 -0.051617
NeckDummy 0.059550 0.461391 0.984860 13.410145 -0.385551 -0.336163
Neck 3.044733 -8.192126 40.936692
Head 0.204224 -0.135876 -0.152253 0.608084 1.142477 0.724190
LeftShoulderDummy 0.011290 0.457120 0.995772 13.430270 -0.533884 -0.129860
LeftShoulder 3.141755 -4.200643 14.530409
LeftArm 12.829064 36.240033 32.107752
LeftForeArm 62.252853
LeftForeArmRoll 11.094178
LeftHand -32.979370 -20.683673 4.242251
LeftHandThumb1 14.805890 4.107158
LeftHandIndex1 -1.317262 45.314812
LeftHandPinky1 0.487715 65.738965
RightShoulderDummy 0.064450 0.471031 0.965990 13.404987 0.381439 0.376373
RightShoulder 11.841228 0.945776 11.126271
RightArm -16.053630 59.598234 21.577824
RightForeArm 96.506415
RightForeArmRoll 20.690525
RightHand -45.495084 -25.434753 7.277393
RightHandThumb1 11.440081 8.171466
RightHandIndex1 4.142486 46.638374
RightHandPinky1 11.528320 73.818052
LeftUpLeg -6.212467 9.595538 -27.830625
LeftLeg 49.004068
LeftFoot -0.041058 -0.855134 -1.726256 -13.248376 16.368206 -23.256988
LeftToeBase -2.263524
RightUpLeg -4.012174 15.574767 -41.199397
RightLeg 56.873552
RightFoot 0.041656 0.843860 0.484424 -3.098456 14.310638 -14.452879
RightToeBase -7.677144
